<svg xmlns="http://www.w3.org/2000/svg" width="48" height="48" viewBox="0 0 48 48" fill="none">
  <rect width="48" height="48" rx="10" fill="#0A1428"/>
  <path d="M24 10c-3 0-5.5 2.5-5.5 5.5 0 1.5.6 2.8 1.5 3.8-1.8 1.5-3 3.8-3 6.4 0 4.7 3.8 8.5 8.5 8.5s8.5-3.8 8.5-8.5c0-2.6-1.2-4.9-3-6.4.9-1 1.5-2.3 1.5-3.8 0-3-2.5-5.5-5.5-5.5z" fill="#E8834A" opacity="0.9"/>
  <path d="M21 27c0 1.7 1.3 3 3 3s3-1.3 3-3-1.3-3-3-3-3 1.3-3 3z" fill="#F59E0B" opacity="0.8"/>
  <line x1="16" y1="33" x2="32" y2="33" stroke="#E8834A" stroke-width="1.5" stroke-linecap="round" opacity="0.6"/>
  <line x1="18" y1="36" x2="30" y2="36" stroke="#E8834A" stroke-width="1.5" stroke-linecap="round" opacity="0.4"/>
</svg>
