<svg xmlns="http://www.w3.org/2000/svg" width="1200" height="630" viewBox="0 0 1200 630" fill="none">
  <rect width="1200" height="630" fill="#0A1428"/>
  <circle cx="600" cy="315" r="400" fill="#0F1B33" opacity="0.5"/>
  <circle cx="600" cy="315" r="250" fill="#132240" opacity="0.3"/>
  <g transform="translate(560,220)">
    <path d="M-20-30c-18 0-33 15-33 33 0 9 3.6 16.8 9 22.8-10.8 9-18 22.8-18 38.4 0 28.2 22.8 51 51 51s51-22.8 51-51c0-15.6-7.2-29.4-18-38.4 5.4-6 9-13.8 9-22.8 0-18-15-33-33-33z" fill="#E8834A" opacity="0.9"/>
    <path d="M-8 32c0 9.9 8.1 18 18 18s18-8.1 18-18-8.1-18-18-18-18 8.1-18 18z" fill="#F59E0B" opacity="0.8"/>
    <line x1="-40" y1="68" x2="40" y2="68" stroke="#E8834A" stroke-width="4" stroke-linecap="round" opacity="0.6"/>
    <line x1="-28" y1="80" x2="28" y2="80" stroke="#E8834A" stroke-width="3" stroke-linecap="round" opacity="0.4"/>
  </g>
  <text x="600" y="330" font-family="system-ui,-apple-system,sans-serif" font-size="72" font-weight="700" fill="#FFFFFF" text-anchor="middle">AsamApp</text>
  <text x="600" y="390" font-family="system-ui,-apple-system,sans-serif" font-size="28" font-weight="400" fill="#8BA0B0" text-anchor="middle">Gestión profesional de eventos gastronómicos</text>
  <text x="600" y="440" font-family="system-ui,-apple-system,sans-serif" font-size="20" font-weight="400" fill="#64748B" text-anchor="middle">Presupuestos · Insumos · Compras · Rentabilidad real</text>
  <rect x="470" y="490" width="260" height="50" rx="25" fill="#E8834A"/>
  <text x="600" y="522" font-family="system-ui,-apple-system,sans-serif" font-size="20" font-weight="600" fill="#0A1428" text-anchor="middle">Abrir la app</text>
</svg>
